<mxfile host="app.diagrams.net" agent="Mozilla/5.0 (Windows NT 10.0; Win64; x64) AppleWebKit/537.36 (KHTML, like Gecko) Chrome/134.0.0.0 Safari/537.36 Edg/134.0.0.0" version="26.1.1">
  <diagram name="Page-1" id="7XcqnQR7zRWJhbjN3CTV">
    <mxGraphModel>
      <root>
        <mxCell id="0" />
        <mxCell id="1" parent="0" />
        <mxCell id="2" value="Start" style="ellipse;aspect=fixed;strokeWidth=2;whiteSpace=wrap;" vertex="1" parent="1">
          <mxGeometry x="8" y="132" width="50" height="50" as="geometry" />
        </mxCell>
        <mxCell id="3" value="Process 1" style="whiteSpace=wrap;strokeWidth=2;" vertex="1" parent="1">
          <mxGeometry x="108" y="130" width="126" height="54" as="geometry" />
        </mxCell>
        <mxCell id="4" value="Decision 1" style="rhombus;strokeWidth=2;whiteSpace=wrap;" vertex="1" parent="1">
          <mxGeometry x="284" y="94" width="127" height="127" as="geometry" />
        </mxCell>
        <mxCell id="5" value="Process 2" style="whiteSpace=wrap;strokeWidth=2;" vertex="1" parent="1">
          <mxGeometry x="488" y="234" width="126" height="54" as="geometry" />
        </mxCell>
        <mxCell id="6" value="Decision 2" style="rhombus;strokeWidth=2;whiteSpace=wrap;" vertex="1" parent="1">
          <mxGeometry x="488" y="24" width="127" height="127" as="geometry" />
        </mxCell>
        <mxCell id="7" value="Process 3" style="whiteSpace=wrap;strokeWidth=2;" vertex="1" parent="1">
          <mxGeometry x="692" y="8" width="126" height="54" as="geometry" />
        </mxCell>
        <mxCell id="8" value="Process 4" style="whiteSpace=wrap;strokeWidth=2;" vertex="1" parent="1">
          <mxGeometry x="692" y="112" width="126" height="54" as="geometry" />
        </mxCell>
        <mxCell id="9" value="End" style="shape=hexagon;perimeter=hexagonPerimeter2;fixedSize=1;strokeWidth=2;whiteSpace=wrap;" vertex="1" parent="1">
          <mxGeometry x="900" y="68" width="61" height="39" as="geometry" />
        </mxCell>
        <mxCell id="10" value="Process 5" style="whiteSpace=wrap;strokeWidth=2;" vertex="1" parent="1">
          <mxGeometry x="692" y="234" width="126" height="54" as="geometry" />
        </mxCell>
        <mxCell id="11" value="Process 6" style="whiteSpace=wrap;strokeWidth=2;" vertex="1" parent="1">
          <mxGeometry x="868" y="234" width="126" height="54" as="geometry" />
        </mxCell>
        <mxCell id="12" value="Decision 3" style="rhombus;strokeWidth=2;whiteSpace=wrap;" vertex="1" parent="1">
          <mxGeometry x="1044" y="198" width="127" height="127" as="geometry" />
        </mxCell>
        <mxCell id="13" value="Process 7" style="whiteSpace=wrap;strokeWidth=2;" vertex="1" parent="1">
          <mxGeometry x="1248" y="182" width="126" height="54" as="geometry" />
        </mxCell>
        <mxCell id="14" value="Process 8" style="whiteSpace=wrap;strokeWidth=2;" vertex="1" parent="1">
          <mxGeometry x="1248" y="286" width="126" height="54" as="geometry" />
        </mxCell>
        <mxCell id="15" value="Decision 4" style="rhombus;strokeWidth=2;whiteSpace=wrap;" vertex="1" parent="1">
          <mxGeometry x="1424" y="198" width="127" height="127" as="geometry" />
        </mxCell>
        <mxCell id="16" value="End" style="shape=hexagon;perimeter=hexagonPerimeter2;fixedSize=1;strokeWidth=2;whiteSpace=wrap;" vertex="1" parent="1">
          <mxGeometry x="1628" y="197" width="61" height="39" as="geometry" />
        </mxCell>
        <mxCell id="17" value="End" style="shape=hexagon;perimeter=hexagonPerimeter2;fixedSize=1;strokeWidth=2;whiteSpace=wrap;" vertex="1" parent="1">
          <mxGeometry x="1628" y="286" width="61" height="39" as="geometry" />
        </mxCell>
        <mxCell id="18" value="" style="curved=1;startArrow=none;endArrow=block;exitX=1;exitY=0.5;entryX=0;entryY=0.5;" edge="1" parent="1" source="2" target="3">
          <mxGeometry relative="1" as="geometry">
            <Array as="points" />
          </mxGeometry>
        </mxCell>
        <mxCell id="19" value="" style="curved=1;startArrow=none;endArrow=block;exitX=1;exitY=0.5;entryX=0;entryY=0.5;" edge="1" parent="1" source="3" target="4">
          <mxGeometry relative="1" as="geometry">
            <Array as="points" />
          </mxGeometry>
        </mxCell>
        <mxCell id="20" value="Yes" style="curved=1;startArrow=none;endArrow=block;exitX=0.99;exitY=1;entryX=0;entryY=0.5;" edge="1" parent="1" source="4" target="5">
          <mxGeometry relative="1" as="geometry">
            <Array as="points">
              <mxPoint x="449" y="261" />
            </Array>
          </mxGeometry>
        </mxCell>
        <mxCell id="21" value="No" style="curved=1;startArrow=none;endArrow=block;exitX=1;exitY=0.15;entryX=0;entryY=0.5;" edge="1" parent="1" source="4" target="6">
          <mxGeometry relative="1" as="geometry">
            <Array as="points">
              <mxPoint x="449" y="87" />
            </Array>
          </mxGeometry>
        </mxCell>
        <mxCell id="22" value="Yes" style="curved=1;startArrow=none;endArrow=block;exitX=1;exitY=0.24;entryX=0;entryY=0.5;" edge="1" parent="1" source="6" target="7">
          <mxGeometry relative="1" as="geometry">
            <Array as="points">
              <mxPoint x="653" y="35" />
            </Array>
          </mxGeometry>
        </mxCell>
        <mxCell id="23" value="No" style="curved=1;startArrow=none;endArrow=block;exitX=1;exitY=0.75;entryX=0;entryY=0.5;" edge="1" parent="1" source="6" target="8">
          <mxGeometry relative="1" as="geometry">
            <Array as="points">
              <mxPoint x="653" y="139" />
            </Array>
          </mxGeometry>
        </mxCell>
        <mxCell id="24" value="" style="curved=1;startArrow=none;endArrow=block;exitX=1;exitY=0.5;entryX=0.01;entryY=0.03;" edge="1" parent="1" source="7" target="9">
          <mxGeometry relative="1" as="geometry">
            <Array as="points">
              <mxPoint x="843" y="35" />
            </Array>
          </mxGeometry>
        </mxCell>
        <mxCell id="25" value="" style="curved=1;startArrow=none;endArrow=block;exitX=1;exitY=0.5;entryX=0.01;entryY=0.95;" edge="1" parent="1" source="8" target="9">
          <mxGeometry relative="1" as="geometry">
            <Array as="points">
              <mxPoint x="843" y="139" />
            </Array>
          </mxGeometry>
        </mxCell>
        <mxCell id="26" value="" style="curved=1;startArrow=none;endArrow=block;exitX=1;exitY=0.5;entryX=0;entryY=0.5;" edge="1" parent="1" source="5" target="10">
          <mxGeometry relative="1" as="geometry">
            <Array as="points" />
          </mxGeometry>
        </mxCell>
        <mxCell id="27" value="" style="curved=1;startArrow=none;endArrow=block;exitX=1;exitY=0.5;entryX=0;entryY=0.5;" edge="1" parent="1" source="10" target="11">
          <mxGeometry relative="1" as="geometry">
            <Array as="points" />
          </mxGeometry>
        </mxCell>
        <mxCell id="28" value="" style="curved=1;startArrow=none;endArrow=block;exitX=1;exitY=0.5;entryX=0;entryY=0.5;" edge="1" parent="1" source="11" target="12">
          <mxGeometry relative="1" as="geometry">
            <Array as="points" />
          </mxGeometry>
        </mxCell>
        <mxCell id="29" value="Yes" style="curved=1;startArrow=none;endArrow=block;exitX=0.99;exitY=0.24;entryX=0;entryY=0.5;" edge="1" parent="1" source="12" target="13">
          <mxGeometry relative="1" as="geometry">
            <Array as="points">
              <mxPoint x="1209" y="209" />
            </Array>
          </mxGeometry>
        </mxCell>
        <mxCell id="30" value="No" style="curved=1;startArrow=none;endArrow=block;exitX=0.99;exitY=0.75;entryX=0;entryY=0.5;" edge="1" parent="1" source="12" target="14">
          <mxGeometry relative="1" as="geometry">
            <Array as="points">
              <mxPoint x="1209" y="313" />
            </Array>
          </mxGeometry>
        </mxCell>
        <mxCell id="31" value="" style="curved=1;startArrow=none;endArrow=block;exitX=1;exitY=0.5;entryX=0;entryY=0.2;" edge="1" parent="1" source="13" target="15">
          <mxGeometry relative="1" as="geometry">
            <Array as="points">
              <mxPoint x="1399" y="209" />
            </Array>
          </mxGeometry>
        </mxCell>
        <mxCell id="32" value="" style="curved=1;startArrow=none;endArrow=block;exitX=1;exitY=0.5;entryX=0;entryY=0.79;" edge="1" parent="1" source="14" target="15">
          <mxGeometry relative="1" as="geometry">
            <Array as="points">
              <mxPoint x="1399" y="313" />
            </Array>
          </mxGeometry>
        </mxCell>
        <mxCell id="33" value="Yes" style="curved=1;startArrow=none;endArrow=block;exitX=0.99;exitY=0.28;entryX=-0.01;entryY=0.5;" edge="1" parent="1" source="15" target="16">
          <mxGeometry relative="1" as="geometry">
            <Array as="points">
              <mxPoint x="1589" y="217" />
            </Array>
          </mxGeometry>
        </mxCell>
        <mxCell id="34" value="No" style="curved=1;startArrow=none;endArrow=block;exitX=0.99;exitY=0.71;entryX=-0.01;entryY=0.5;" edge="1" parent="1" source="15" target="17">
          <mxGeometry relative="1" as="geometry">
            <Array as="points">
              <mxPoint x="1589" y="306" />
            </Array>
          </mxGeometry>
        </mxCell>
      </root>
    </mxGraphModel>
  </diagram>
</mxfile>
